
<svg fill="none" width="340" height="420" xmlns="http://www.w3.org/2000/svg" viewBox="0 0 340 420"><g clip-path="url(#clip0)"><path opacity=".2" d="M202.6 48.6a73.7 73.7 0 00-94-44.2L0 43.7v42.8l122.2-44.2a33.4 33.4 0 0122.6 62.8L0 157.5v42.9L158.5 143a74 74 0 0044.1-94.4z" fill="url(#paint0_linear)"/><path opacity=".2" d="M51.6 371.4A74 74 0 007.5 277L0 274.3v43.6a33.5 33.5 0 0113.8 39.8 33.2 33.2 0 01-13.8 17v43.1a73.7 73.7 0 0051.6-46.4z" fill="url(#paint1_linear)"/><path opacity=".2" d="M311.8 167.7a33.4 33.4 0 01-41.9-20.4 33.4 33.4 0 0119.3-42.4L340 86.5V43.7L275.5 67a73.7 73.7 0 0050 138.6l14.5-5.2v-42.9l-28.2 10.2z" fill="url(#paint2_linear)"/><path opacity=".2" d="M311.2 377.7L283 367.5l-144.8-52.4a33.4 33.4 0 01-19.5-42.5 33.4 33.4 0 0142.1-20.3L283 296.5 334 315a33.7 33.7 0 016.1 3v-43.6l-57-20.6-108.5-39.3a73.7 73.7 0 00-50 138.6L283 410.4l14.5 5.3a72.8 72.8 0 0042.5 2.1v-43.1a33.2 33.2 0 01-28.8 3z" fill="url(#paint3_linear)"/></g><defs><linearGradient id="paint0_linear" x1="-110" y1="210" x2="216" y2="10.6" gradientUnits="userSpaceOnUse"><stop offset=".2" stop-color="#F68EFE"/><stop offset=".8" stop-color="#FAA"/></linearGradient><linearGradient id="paint1_linear" x1="50" y1="420" x2="-196.8" y2="478.1" gradientUnits="userSpaceOnUse"><stop offset=".2" stop-color="#F68EFE"/><stop offset=".8" stop-color="#FAA"/></linearGradient><linearGradient id="paint2_linear" x1="230" y1="210" x2="434.8" y2="-81.1" gradientUnits="userSpaceOnUse"><stop offset=".1" stop-color="#F68EFE"/><stop offset="1" stop-color="#FAA"/></linearGradient><linearGradient id="paint3_linear" x1="390" y1="420" x2="141.7" y2="152.7" gradientUnits="userSpaceOnUse"><stop offset=".4" stop-color="#F68EFE"/><stop offset=".8" stop-color="#FAA"/></linearGradient><clipPath id="clip0"><path fill="#fff" d="M0 0h340v420H0z"/></clipPath></defs></svg>
